<svg xmlns="http://www.w3.org/2000/svg" width="512" height="512" viewBox="0 0 512 512">
  <rect width="512" height="512" rx="100" fill="#FF7E1D" />
  <path d="M156 356V156h75c20 0 36 5 47 14.5s17 22.5 17 38.5c0 9.5-2.5 18-7.5 25.5s-12 13-21 17c11 3 19.5 9 26 18s9.75 19.5 9.75 31.5c0 18-6 32.5-18 43S253 356 231 356h-75zm52-118h18c9 0 15.75-2 20-6s6.5-9.5 6.5-16.5c0-13.5-9-20.25-27-20.25h-17.5V238zm0 78h21c9.5 0 16.5-2 21-6s6.75-10 6.75-18c0-7.5-2.25-13-6.75-17s-11.5-6-21-6H208v47zM323 356l-51-200h53l23 110c1 5.5 2 11.5 2.5 18 0.5 6.5 1 12.5 1 18h1c0-6 0.5-12 1-18s1.5-12 2.5-18l24-110h51l-51 200h-57z" fill="white" />
</svg>